<svg width="668" height="668" viewBox="0 0 668 668" fill="none" xmlns="http://www.w3.org/2000/svg">
<path d="M388.293 616.394L370.223 646.924C354.117 674.134 313.883 674.134 297.777 646.924L279.707 616.394C265.691 592.714 258.683 580.877 247.426 574.327C236.17 567.78 221.997 567.537 193.653 567.05C151.807 566.327 125.563 563.764 103.553 554.647C62.7147 537.73 30.2691 505.287 13.3534 464.447C0.666747 433.82 0.666748 394.99 0.666748 317.334V284C0.666748 174.886 0.666746 120.329 25.2267 80.2506C38.9694 57.8246 57.8244 38.9697 80.2504 25.227C120.328 0.66699 174.886 0.666992 284 0.666992H384C493.113 0.666992 547.67 0.66699 587.75 25.227C610.177 38.9697 629.03 57.8246 642.773 80.2506C667.333 120.329 667.333 174.886 667.333 284V317.334C667.333 394.99 667.333 433.82 654.647 464.447C637.73 505.287 605.287 537.73 564.447 554.647C542.437 563.764 516.193 566.327 474.347 567.05C446 567.537 431.83 567.78 420.573 574.327C409.317 580.874 402.307 592.714 388.293 616.394Z" fill="white"/>
</svg>
