<svg width="668" height="655" viewBox="0 0 668 655" fill="none" xmlns="http://www.w3.org/2000/svg">
<path d="M629.31 206.995L398.31 22.3285C362.643 -6.3382 304.977 -6.3382 269.643 21.9951L38.6431 206.995C12.6431 227.662 -4.02355 271.327 1.64311 303.993L45.9764 569.327C53.9764 616.66 99.3098 654.993 147.31 654.993H520.643C568.31 654.993 613.977 616.327 621.977 569.327L666.31 303.993C671.643 271.327 654.977 227.662 629.31 206.995ZM333.977 444.66C287.977 444.66 250.643 407.327 250.643 361.327C250.643 315.327 287.977 277.993 333.977 277.993C379.977 277.993 417.31 315.327 417.31 361.327C417.31 407.327 379.977 444.66 333.977 444.66Z" fill="white"/>
</svg>
